<svg xmlns="http://www.w3.org/2000/svg" viewBox="0 0 86 95" width="86" height="95"><defs><clipPath clipPathUnits="userSpaceOnUse" id="cp1"><path d="M1 1L85 1L85 95L1 95Z" /></clipPath></defs><style>tspan { white-space:pre }.shp0 { fill: #a4c639 } </style><g id="Page 1" clip-path="url(#cp1)"><path id="Path 1" fill-rule="evenodd" class="shp0" d="M69.32 29.6L69.32 67.11C69.32 70.96 66.4 74.09 62.68 74.36L62.68 89.23C62.68 92.42 60.1 95 56.91 95C53.73 95 51.14 92.42 51.14 89.23L51.14 74.39L35.03 74.39L35.03 89.23C35.03 92.42 32.44 95 29.26 95C26.07 95 23.49 92.42 23.49 89.23L23.49 74.36C19.77 74.09 16.85 70.96 16.85 67.11L16.85 29.6C16.85 29.37 16.87 29.15 16.89 28.93L69.29 28.93C69.31 29.15 69.32 29.37 69.32 29.6ZM6.77 32.27C9.96 32.27 12.54 34.86 12.54 38.04L12.54 62.8C12.54 65.99 9.96 68.57 6.77 68.57C3.58 68.57 1 65.99 1 62.8L1 38.04C1 34.85 3.58 32.27 6.77 32.27ZM79.4 32.27C82.59 32.27 85.17 34.86 85.17 38.04L85.17 62.8C85.17 65.99 82.59 68.57 79.4 68.57C76.21 68.57 73.63 65.99 73.63 62.8L73.63 38.04C73.63 34.85 76.21 32.27 79.4 32.27ZM23.43 10.3L18.54 1.83C18.37 1.54 18.47 1.16 18.76 1C19.05 0.83 19.43 0.93 19.59 1.22L24.34 9.43C28.44 5.73 37.05 2.63 43.08 2.63C49.33 2.63 57.73 5.73 61.83 9.43L66.58 1.22C66.74 0.93 67.11 0.83 67.41 1C67.69 1.17 67.79 1.54 67.63 1.83L62.74 10.3C66.64 14.2 69.03 19.28 69.11 24.85L17.06 24.85C17.14 19.28 19.53 14.2 23.43 10.3ZM51.65 14.54C51.65 16.15 52.99 17.45 54.64 17.45C56.29 17.44 57.62 16.13 57.62 14.52L57.62 14.51C57.61 12.89 56.28 11.59 54.62 11.6C52.97 11.6 51.64 12.91 51.65 14.52L51.65 14.54ZM29.36 14.54C29.37 16.15 30.71 17.45 32.36 17.45C34 17.44 35.34 16.13 35.33 14.52L35.33 14.51C35.33 12.89 33.99 11.59 32.34 11.6C30.69 11.6 29.36 12.91 29.36 14.52L29.36 14.54Z" /></g></svg>