<svg xmlns="http://www.w3.org/2000/svg" viewBox="0 0 64 65" width="64" height="65">
	<defs>
		<clipPath clipPathUnits="userSpaceOnUse" id="cp1">
			<path d="M0 0L64 0L64 64L0 64Z" />
		</clipPath>
	</defs>
	<style>
		tspan { white-space:pre }
		.shp0 { fill: #231f20 } 
		.shp1 { fill: #000000 } 
	</style>
	<g id="Page 1" clip-path="url(#cp1)">
		<path id="Path 1" fill-rule="evenodd" class="shp0" d="M63.84 32.08C63.84 49.71 49.55 64 31.92 64C14.29 64 0 49.71 0 32.08C0 14.45 14.29 0.16 31.92 0.16C49.55 0.16 63.84 14.45 63.84 32.08ZM8 32.08C8 45.27 18.73 56 31.92 56C45.11 56 55.84 45.27 55.84 32.08C55.84 18.89 45.11 8.16 31.92 8.16C18.73 8.16 8 18.89 8 32.08Z" />
		<path id="Path 2" class="shp1" d="M31.92 48.74C41.33 48.74 48.96 41.12 48.96 31.7C48.96 22.29 41.33 14.67 31.92 14.67" />
	</g>
</svg>

