<svg xmlns="http://www.w3.org/2000/svg" viewBox="0 0 309 391" width="309" height="391">
	<defs>
		<clipPath clipPathUnits="userSpaceOnUse" id="cp1">
			<path d="M0 0L309 0L309 391L0 391Z" />
		</clipPath>
	</defs>
	<style>
		tspan { white-space:pre }
		.shp0 { fill: #000000;stroke: #231f20;stroke-width: 2 } 
	</style>
	<g id="Page 1" clip-path="url(#cp1)">
		<path id="Path 1" fill-rule="evenodd" class="shp0" d="M307.77 17.43L307.77 298.57L154.38 389.84L1 298.57L1 17.43L154.38 1.35L155.99 1.52L307.77 17.43ZM153.63 76.97L153.63 76.96L21.35 156.47L153.44 234.99L176.02 221.43L153.86 208.37L153.99 194.47L187.77 214.38L188.03 214.22L198.58 207.16L153.86 180.57L153.99 166.67L210.65 200.37L220.4 194.63L221.88 193.76L222.49 193.4L153.86 152.59L153.99 138.68L234.29 186.45L251.12 176.53L287.6 155.04L153.63 76.97ZM287.7 169.99L246.57 194.55L246.57 239.96L246.69 239.9L246.69 253.86L154.38 309.09L62.96 254.14L63.09 240.24L154.49 294.61L154.26 279.91L62.83 224.96L62.97 211.06L154.03 265.26L153.81 250.94L21.06 171.93L21.06 287.16L154.38 366.49L287.7 287.16L287.7 169.99ZM287.7 35.51L154.39 21.53L21.06 35.51L21.06 140.97L153.63 62.04L153.63 62.02L153.65 62.03L153.66 62.02L153.66 62.04L287.7 141.06L287.7 35.51Z" />
	</g>
</svg>