<svg xmlns="http://www.w3.org/2000/svg" viewBox="0 0 36 28" width="36" height="28">
	<defs>
		<clipPath clipPathUnits="userSpaceOnUse" id="cp1">
			<path d="M0 0L36 0L36 28L0 28Z" />
		</clipPath>
	</defs>
	<style>
		tspan { white-space:pre }
		.shp0 { fill: #ffffff } 
	</style>
	<g id="Page 1" clip-path="url(#cp1)">
		<path id="Path 1" class="shp0" d="M29.83 3.7C32.22 1.7 31.63 0.07 28.51 0.07L7.46 0.07C4.34 0.07 3.75 1.7 6.15 3.7L13.63 9.93C16.03 11.93 19.95 11.93 22.34 9.93L29.83 3.7ZM23.83 14.16C21.43 16.15 19.44 17.81 19.39 17.83L19.35 17.86C19.2 17.97 19.05 18.06 18.88 18.13C18.81 18.16 18.75 18.2 18.68 18.22C18.46 18.29 18.23 18.34 18.01 18.34C18 18.34 18 18.34 17.99 18.34L17.99 18.34L17.99 18.34C17.98 18.34 17.97 18.34 17.97 18.34C17.74 18.34 17.52 18.29 17.3 18.22C17.23 18.2 17.16 18.16 17.1 18.13C16.93 18.06 16.78 17.97 16.63 17.86L16.59 17.83C16.54 17.81 14.55 16.15 12.15 14.16L4.36 7.66C1.96 5.67 0 6.58 0 9.7L0 22.33C0 25.45 2.55 28 5.67 28L30.31 28C33.43 28 35.98 25.45 35.98 22.33L35.98 9.7C35.98 6.58 34.02 5.67 31.62 7.66L23.83 14.16Z" />
	</g>
</svg>