<svg xmlns="http://www.w3.org/2000/svg" width="86" height="95"><defs><clipPath id="cp1"><path d="M1 1h84v94H1z"/></clipPath></defs><style></style><g id="Page 1" clip-path="url(#cp1)"><path id="Path 1" fill-rule="evenodd" d="M69.32 29.6v37.51c0 3.85-2.92 6.98-6.64 7.25v14.87c0 3.19-2.58 5.77-5.77 5.77-3.18 0-5.77-2.58-5.77-5.77V74.39H35.03v14.84c0 3.19-2.59 5.77-5.77 5.77-3.19 0-5.77-2.58-5.77-5.77V74.36c-3.72-.27-6.64-3.4-6.64-7.25V29.6c0-.23.02-.45.04-.67h52.4c.02.22.03.44.03.67zM6.77 32.27c3.19 0 5.77 2.59 5.77 5.77V62.8c0 3.19-2.58 5.77-5.77 5.77C3.58 68.57 1 65.99 1 62.8V38.04c0-3.19 2.58-5.77 5.77-5.77zm72.63 0c3.19 0 5.77 2.59 5.77 5.77V62.8c0 3.19-2.58 5.77-5.77 5.77-3.19 0-5.77-2.58-5.77-5.77V38.04c0-3.19 2.58-5.77 5.77-5.77zM23.43 10.3l-4.89-8.47a.604.604 0 0 1 .22-.83c.29-.17.67-.07.83.22l4.75 8.21c4.1-3.7 12.71-6.8 18.74-6.8 6.25 0 14.65 3.1 18.75 6.8l4.75-8.21c.16-.29.53-.39.83-.22.28.17.38.54.22.83l-4.89 8.47c3.9 3.9 6.29 8.98 6.37 14.55H17.06c.08-5.57 2.47-10.65 6.37-14.55zm28.22 4.24c0 1.61 1.34 2.91 2.99 2.91 1.65-.01 2.98-1.32 2.98-2.93v-.01c-.01-1.62-1.34-2.92-3-2.91-1.65 0-2.98 1.31-2.97 2.92v.02zm-22.29 0c.01 1.61 1.35 2.91 3 2.91 1.64-.01 2.98-1.32 2.97-2.93v-.01c0-1.62-1.34-2.92-2.99-2.91-1.65 0-2.98 1.31-2.98 2.92v.02z" fill="#a4c639"/></g></svg>