<svg xmlns="http://www.w3.org/2000/svg" viewBox="0 0 93 114" width="93" height="114">
	<defs>
		<clipPath clipPathUnits="userSpaceOnUse" id="cp1">
			<path d="M0 0L92 0L92 114L0 114Z" />
		</clipPath>
	</defs>
	<style>
		tspan { white-space:pre }
		.shp0 { fill: #ffffff } 
	</style>
	<g id="Page 1" clip-path="url(#cp1)">
		<path id="Path 1" fill-rule="evenodd" class="shp0" d="M62.9 18.62C66.87 13.82 69.54 7.14 68.81 0.5C63.1 0.73 56.19 4.3 52.09 9.1C48.42 13.35 45.2 20.14 46.07 26.66C52.44 27.15 58.94 23.42 62.9 18.62ZM89.45 39.2C82.78 29.43 72.4 28.1 68.7 27.94C59.85 27.05 51.45 33.14 46.96 33.14C42.49 33.14 35.57 28.07 28.23 28.21C18.6 28.35 9.71 33.81 4.75 42.44C-5.26 59.8 2.19 85.53 11.94 99.62C16.71 106.51 22.4 114.28 29.86 113.99C37.05 113.71 39.77 109.35 48.46 109.35C57.15 109.35 59.59 113.99 67.19 113.85C74.92 113.71 79.83 106.82 84.56 99.91C90.04 91.91 92.29 84.17 92.42 83.76C92.26 83.69 77.35 77.98 77.19 60.8C77.06 46.44 88.92 39.53 89.45 39.2Z" />
	</g>
</svg>