<svg xmlns="http://www.w3.org/2000/svg" width="93" height="114"><defs><clipPath id="cp1"><path d="M0 0h92v114H0z"/></clipPath></defs><style></style><g id="Page 1" clip-path="url(#cp1)"><path id="Path 1" fill-rule="evenodd" d="M62.9 18.62c3.97-4.8 6.64-11.48 5.91-18.12-5.71.23-12.62 3.8-16.72 8.6-3.67 4.25-6.89 11.04-6.02 17.56 6.37.49 12.87-3.24 16.83-8.04zM89.45 39.2C82.78 29.43 72.4 28.1 68.7 27.94c-8.85-.89-17.25 5.2-21.74 5.2-4.47 0-11.39-5.07-18.73-4.93-9.63.14-18.52 5.6-23.48 14.23-10.01 17.36-2.56 43.09 7.19 57.18 4.77 6.89 10.46 14.66 17.92 14.37 7.19-.28 9.91-4.64 18.6-4.64 8.69 0 11.13 4.64 18.73 4.5 7.73-.14 12.64-7.03 17.37-13.94 5.48-8 7.73-15.74 7.86-16.15-.16-.07-15.07-5.78-15.23-22.96-.13-14.36 11.73-21.27 12.26-21.6z" fill="#fff"/></g></svg>