<svg xmlns="http://www.w3.org/2000/svg" width="64" height="65"><defs><clipPath id="cp1"><path d="M0 0h64v64H0z"/></clipPath></defs><style></style><g id="Page 1" clip-path="url(#cp1)"><path id="Path 1" fill-rule="evenodd" d="M63.84 32.08C63.84 49.71 49.55 64 31.92 64 14.29 64 0 49.71 0 32.08 0 14.45 14.29.16 31.92.16c17.63 0 31.92 14.29 31.92 31.92zM8 32.08C8 45.27 18.73 56 31.92 56c13.19 0 23.92-10.73 23.92-23.92 0-13.19-10.73-23.92-23.92-23.92C18.73 8.16 8 18.89 8 32.08z" fill="#231f20"/><path id="Path 2" d="M31.92 48.74c9.41 0 17.04-7.62 17.04-17.04 0-9.41-7.63-17.03-17.04-17.03"/></g></svg>