<svg xmlns="http://www.w3.org/2000/svg" width="96" height="86"><defs><clipPath id="cp1"><path d="M0 0h96v96H0z"/></clipPath></defs><style></style><g id="Page 1" clip-path="url(#cp1)"><path id="Path 1" fill-rule="evenodd" d="M84 60c0 4.42-3.58 8-8 8s-8-3.58-8-8c0-5.34 8-14 8-14s8 8.66 8 14zM66.24 44.24l-22 22A5.916 5.916 0 0 1 40 68c-1.54 0-3.08-.58-4.24-1.76l-22-22a6 6 0 0 1 0-8.48l20.58-20.58-9.52-9.52L30.48 0l35.76 35.76a6 6 0 0 1 0 8.48zM59.18 40L40 20.84 20.82 40h38.36zM96 86H0v-6h96v6z"/></g></svg>