<svg xmlns="http://www.w3.org/2000/svg" viewBox="00 26 24" width="26" height="24"><defs><path d="M0 0h25v24H0z"/></defs><path id="Path 1" fill-rule="evenodd" d="M12.47 24c-.42 0-.82-.18-1.1-.5-7.6-8.65-9.29-10.59-9.72-11.14h-.01A7.7 7.7 0 0 1 0 7.62C0 3.43 3.41.02 7.6.02c1.86 0 3.6.64 4.97 1.8a7.667 7.667 0 0 1 4.92-1.8c4.19 0 7.6 3.41 7.6 7.6 0 1.82-.64 3.51-1.79 4.76L13.58 23.5c-.28.32-.69.5-1.11.5zM3.98 10.59c.42.51 4.94 5.68 8.49 9.71l8.64-9.88c.68-.74 1.04-1.72 1.04-2.8 0-2.57-2.09-4.66-4.66-4.66-1.46 0-2.84.68-3.8 1.88-.28.36-.7.54-1.17.55-.45 0-.88-.22-1.15-.59-.88-1.17-2.26-1.84-3.77-1.84-2.57 0-4.66 2.09-4.66 4.66 0 1.35.55 2.34 1.01 2.93.01.01.02.02.03.04z"/></svg>