<svg xmlns="http://www.w3.org/2000/svg" viewBox="0 0 309 391" fill="#D22855" width="309" height="391"><defs><path d="M0 0h309v391H0z"/></clipPath></defs><path id="Path 1" fill-rule="evenodd" d="M307.77 17.43v281.14l-153.39 91.27L1 298.57V17.43L154.38 1.35l1.61.17 151.78 15.91zM153.63 76.97v-.01L21.35 156.47l132.09 78.52 22.58-13.56-22.16-13.06.13-13.9 33.78 19.91.26-.16 10.55-7.06-44.72-26.59.13-13.9 56.66 33.7 9.75-5.74 1.48-.87.61-.36-68.63-40.81.13-13.91 80.3 47.77 16.83-9.92 36.48-21.49-133.97-78.07zm134.07 93.02l-41.13 24.56v45.41l.12-.06v13.96l-92.31 55.23-91.42-54.95.13-13.9 91.4 54.37-.23-14.7-91.43-54.95.14-13.9 91.06 54.2-.22-14.32-132.75-79.01v115.23l133.32 79.33 133.32-79.33V169.99zm0-134.48L154.39 21.53 21.06 35.51v105.46l132.57-78.93v-.02l.02.01.01-.01v.02l134.04 79.02V35.51z" stroke="#231f20" stroke-width="2"/></svg>