<svg xmlns="http://www.w3.org/2000/svg" width="293" height="81"><defs><clipPath id="cp1"><path d="M0 0h293v81H0z"/></clipPath></defs><style>.shp0{fill:#fff}.shp1{fill:#d22856}</style><g clip-path="url(#cp1)"><path fill-rule="evenodd" class="shp0" d="M143.75 37.57c0-1.41 1.16-2.57 2.51-2.57h14.36c10.17 0 16.87 5.41 16.87 14.29v.13c0 9.72-8.11 14.74-17.71 14.74h-10.94v13.65c0 1.42-1.16 2.58-2.58 2.58-1.35 0-2.51-1.16-2.51-2.58V37.57zm16.23 21.96c7.46 0 12.36-3.99 12.36-9.92v-.12c0-6.44-4.83-9.79-12.11-9.79h-11.39v19.84h11.14v-.01zm27.23-22.28c0-1.42 1.15-2.58 2.51-2.58 1.41 0 2.57 1.16 2.57 2.58v40.57c0 1.41-1.16 2.57-2.57 2.57-1.36 0-2.51-1.16-2.51-2.57V37.25zm18.28.06c0-1.35 1.16-2.51 2.51-2.51h.71c1.16 0 1.87.58 2.57 1.48l27.37 34.9V37.19c0-1.36 1.1-2.52 2.51-2.52 1.36 0 2.45 1.16 2.45 2.52v40.69c0 1.36-.96 2.38-2.31 2.38h-.26c-1.1 0-1.87-.64-2.64-1.54l-27.95-35.74v34.9c0 1.36-1.09 2.52-2.51 2.52-1.35 0-2.45-1.16-2.45-2.52V37.31zm50.86-.06c0-1.42 1.16-2.58 2.51-2.58 1.42 0 2.57 1.16 2.57 2.58v24.66l25.7-26.33c.58-.52 1.16-.91 1.99-.91 1.35 0 2.45 1.23 2.45 2.52 0 .7-.32 1.28-.84 1.8l-15.97 15.84 17.13 21.12c.45.58.71 1.09.71 1.87 0 1.35-1.15 2.58-2.57 2.58-.97 0-1.61-.52-2.06-1.16l-16.8-20.93-9.73 9.72v9.79c0 1.42-1.16 2.58-2.57 2.58-1.36 0-2.52-1.16-2.52-2.58V37.25z"/><path class="shp1" d="M197 20c-4.01 0-7.25-3.25-7.25-7.25 0 4-3.25 7.25-7.25 7.25 4 0 7.25 3.25 7.25 7.25 0-4 3.24-7.25 7.25-7.25z"/><path class="shp0" d="M86.19 38.88c.49 0 .98.02 1.46.06-.88-1.45-2.46-2.44-4.27-2.44-1.76 0-3.23-1.14-3.77-2.71-1.46.42-2.85.97-4.18 1.63.12.04.24.08.38.08 2.2 0 4 1.79 4 4 0 .19-.03.38-.06.56 2-.76 4.17-1.18 6.44-1.18zm34.73 17.4c0-.02-10.35-42.73-10.35-42.73-.72-4.69-5.18-13.3-17.19-13.3-1.66 0-3 1.34-3 3s1.34 3 3 3c9.71 0 11.15 7.46 11.27 8.29l9.54 39.4h-4.15c-.89-7.12-4.9-13.26-10.61-17.05a5.02 5.02 0 0 0-3.06 4.61c0 .18-.03.34-.05.51 3.98 2.72 6.83 6.98 7.66 11.93.16.98.27 1.98.27 3 0 1.03-.11 2.03-.27 3C102.55 68.49 95.14 75 86.19 75S69.83 68.49 68.4 59.94c-.17-.97-.27-1.97-.27-3 0-1.02.1-2.02.27-3 .29-1.76.85-3.42 1.61-4.97a3.978 3.978 0 0 1-3.7-3.97c0-.37-.16-.71-.39-.97a24.12 24.12 0 0 0-3.59 9.91h-3.64c-1.48-11.85-11.6-21.06-23.85-21.06-12.25 0-22.37 9.2-23.85 21.06H6.84l9.53-39.4c.13-.83 1.57-8.29 11.28-8.29 1.66 0 3-1.34 3-3s-1.34-3-3-3c-12.01 0-16.47 8.61-17.2 13.3 0 0-10.34 42.71-10.35 42.73-.53 2.22 1.07 3.65 2.86 3.65.02 0 .04.01.07.01h7.96c.16 1.26.43 2.48.78 3.66.11-.21.2-.44.2-.7 0-2.21 1.79-4 4-4 .33 0 .65.05.96.12-.09-.68-.15-1.37-.15-2.08 0-1.03.1-2.02.27-3 1.43-8.54 8.84-15.06 17.79-15.06S51.2 45.4 52.63 53.94c.17.98.27 1.97.27 3 0 1.02-.1 2.02-.27 3C51.2 68.48 43.79 75 34.84 75c-4.04 0-7.77-1.34-10.77-3.59-.7.61-1.6.99-2.6.99-.83 0-1.5.67-1.5 1.49 0 .58-.13 1.13-.35 1.62C23.77 78.93 29.06 81 34.85 81c12.25 0 22.37-9.21 23.85-21.06h3.63C63.81 71.79 73.93 81 86.18 81c12.25 0 22.38-9.21 23.86-21.06H118c.02 0 .05-.01.07-.01 1.79 0 3.39-1.43 2.85-3.65z"/><path class="shp1" d="M101.37 32.5a9 9 0 0 1-9-9c0 4.97-4.02 9-8.99 9 4.97 0 8.99 4.03 8.99 9a9 9 0 0 1 9-9zm-25.56 7c-3.04 0-5.5-2.46-5.5-5.5 0 3.04-2.46 5.5-5.5 5.5 3.04 0 5.5 2.46 5.5 5.5 0-3.04 2.46-5.5 5.5-5.5zM21.47 68.39c-3.04 0-5.5-2.46-5.5-5.5 0 3.04-2.46 5.5-5.5 5.5 3.04 0 5.5 2.46 5.5 5.5 0-3.04 2.46-5.5 5.5-5.5z"/></g></svg>