<svg xmlns="http://www.w3.org/2000/svg" width="149" height="46"><defs><clipPath id="cp1"><path d="M0 0h149v46H0z"/></clipPath></defs><style></style><g id="Page 1" clip-path="url(#cp1)"><path id="Path 1" fill-rule="evenodd" d="M0 3.18C0 1.76 1.16.6 2.51.6h14.36c10.18 0 16.87 5.41 16.87 14.3v.12c0 9.73-8.11 14.75-17.7 14.75H5.09v13.65c0 1.42-1.16 2.58-2.58 2.58C1.16 46 0 44.84 0 43.42V3.18zm16.23 21.96c7.47 0 12.36-4 12.36-9.92v-.13c0-6.44-4.83-9.79-12.11-9.79H5.09v19.84h11.14zM43.46 2.86c0-1.42 1.16-2.58 2.51-2.58 1.41 0 2.57 1.16 2.57 2.58v40.56c0 1.42-1.16 2.58-2.57 2.58-1.36 0-2.51-1.16-2.51-2.58V2.86zm18.28.06c0-1.35 1.16-2.51 2.51-2.51h.71c1.16 0 1.87.58 2.58 1.48l27.36 34.9v-34c0-1.35 1.1-2.51 2.51-2.51 1.36 0 2.45 1.16 2.45 2.51v40.7c0 1.35-.96 2.38-2.32 2.38h-.26c-1.09 0-1.86-.64-2.63-1.54L66.7 8.59v34.9c0 1.35-1.1 2.51-2.51 2.51-1.36 0-2.45-1.16-2.45-2.51V2.92zm50.86-.06c0-1.42 1.16-2.58 2.51-2.58 1.42 0 2.58 1.16 2.58 2.58v24.66l25.69-26.34c.58-.51 1.16-.9 2-.9 1.35 0 2.44 1.22 2.44 2.51 0 .71-.32 1.29-.83 1.8l-15.97 15.84 17.13 21.13c.45.58.7 1.09.7 1.86 0 1.36-1.15 2.58-2.57 2.58-.97 0-1.61-.52-2.06-1.16l-16.81-20.93-9.72 9.73v9.78c0 1.42-1.16 2.58-2.57 2.58-1.36 0-2.52-1.16-2.52-2.58V2.86z" fill="#fff"/></g></svg>