<svg xmlns="http://www.w3.org/2000/svg" viewBox="0 0 293 81" width="293" height="81">
	<defs>
		<clipPath clipPathUnits="userSpaceOnUse" id="cp1">
			<path d="M0 0L293 0L293 81L0 81Z" />
		</clipPath>
	</defs>
	<style>
		tspan { white-space:pre }
		.shp0 { fill: #283645 } 
		.shp1 { fill: #d22856 } 
	</style>
	<g id="Page 1" clip-path="url(#cp1)">
		<path id="Path 1" fill-rule="evenodd" class="shp0" d="M143.75 37.58C143.75 36.16 144.91 35 146.26 35L160.62 35C170.79 35 177.49 40.41 177.49 49.29L177.49 49.42C177.49 59.14 169.38 64.16 159.78 64.16L148.84 64.16L148.84 77.81C148.84 79.23 147.68 80.39 146.26 80.39C144.9 80.39 143.74 79.23 143.74 77.81L143.75 37.58ZM159.98 59.53C167.44 59.53 172.34 55.54 172.34 49.62L172.34 49.49C172.34 43.05 167.51 39.7 160.23 39.7L148.84 39.7L148.84 59.54L159.98 59.54L159.98 59.53ZM187.21 37.25C187.21 35.84 188.36 34.68 189.72 34.68C191.13 34.68 192.29 35.84 192.29 37.25L192.29 77.82C192.29 79.23 191.13 80.39 189.72 80.39C188.36 80.39 187.21 79.23 187.21 77.82L187.21 37.25ZM205.49 37.32C205.49 35.96 206.65 34.8 208 34.8L208.71 34.8C209.87 34.8 210.58 35.38 211.28 36.28L238.65 71.18L238.65 37.19C238.65 35.84 239.75 34.68 241.16 34.68C242.52 34.68 243.61 35.84 243.61 37.19L243.61 77.88C243.61 79.24 242.66 80.27 241.3 80.27L241.04 80.27C239.95 80.27 239.17 79.62 238.41 78.72L210.45 42.99L210.45 77.88C210.45 79.24 209.36 80.4 207.94 80.4C206.59 80.4 205.49 79.24 205.49 77.88L205.49 37.32L205.49 37.32ZM256.35 37.25C256.35 35.84 257.51 34.68 258.86 34.68C260.28 34.68 261.43 35.84 261.43 37.25L261.43 61.91L287.13 35.58C287.71 35.06 288.29 34.68 289.12 34.68C290.47 34.68 291.57 35.9 291.57 37.19C291.57 37.9 291.25 38.48 290.73 38.99L274.76 54.83L291.89 75.95C292.34 76.53 292.6 77.04 292.6 77.82C292.6 79.18 291.45 80.4 290.03 80.4C289.07 80.4 288.42 79.88 287.97 79.24L271.17 58.31L261.44 68.03L261.44 77.82C261.44 79.24 260.29 80.4 258.87 80.4C257.52 80.4 256.36 79.24 256.36 77.82L256.36 37.25L256.35 37.25Z" />
		<path id="Path 2" class="shp1" d="M197 20C192.99 20 189.75 16.76 189.75 12.75C189.75 16.76 186.5 20 182.5 20C186.5 20 189.75 23.25 189.75 27.25C189.75 23.25 192.99 20 197 20ZM86.19 38.88C86.68 38.88 87.17 38.91 87.65 38.94C86.77 37.49 85.19 36.5 83.38 36.5C81.62 36.5 80.15 35.37 79.61 33.79C78.15 34.21 76.76 34.76 75.43 35.43C75.55 35.46 75.67 35.5 75.81 35.5C78.01 35.5 79.81 37.29 79.81 39.5C79.81 39.69 79.78 39.88 79.75 40.06C81.75 39.3 83.92 38.88 86.19 38.88ZM120.92 56.28C120.92 56.27 110.57 13.55 110.57 13.55C109.85 8.86 105.39 0.25 93.38 0.25C91.72 0.25 90.38 1.59 90.38 3.25C90.38 4.91 91.72 6.25 93.38 6.25C103.09 6.25 104.53 13.71 104.65 14.54L114.19 53.94L110.04 53.94C109.15 46.83 105.14 40.68 99.43 36.9C97.64 37.66 96.37 39.43 96.37 41.5C96.37 41.68 96.34 41.84 96.32 42.01C100.3 44.73 103.15 48.99 103.98 53.94C104.14 54.92 104.25 55.92 104.25 56.94C104.25 57.97 104.14 58.97 103.98 59.94C102.55 68.49 95.14 75 86.19 75C77.24 75 69.83 68.49 68.4 59.94C68.23 58.97 68.13 57.97 68.13 56.94C68.13 55.92 68.23 54.92 68.4 53.94C68.69 52.19 69.25 50.52 70.01 48.98C67.94 48.82 66.31 47.11 66.31 45.01C66.31 44.63 66.15 44.3 65.92 44.03C64.05 46.97 62.79 50.33 62.33 53.95L58.69 53.95C57.21 42.09 47.09 32.88 34.84 32.88C22.59 32.88 12.47 42.09 10.99 53.94L6.84 53.94L16.37 14.54C16.5 13.71 17.94 6.25 27.65 6.25C29.31 6.25 30.65 4.91 30.65 3.25C30.65 1.59 29.31 0.25 27.65 0.25C15.64 0.25 11.18 8.86 10.45 13.55C10.45 13.55 0.11 56.27 0.1 56.28C-0.43 58.5 1.17 59.94 2.96 59.94C2.98 59.94 3 59.94 3.03 59.94L10.99 59.94C11.15 61.2 11.42 62.42 11.77 63.61C11.88 63.39 11.97 63.16 11.97 62.9C11.97 60.69 13.76 58.9 15.97 58.9C16.3 58.9 16.62 58.95 16.93 59.02C16.84 58.34 16.78 57.65 16.78 56.94C16.78 55.91 16.88 54.92 17.05 53.94C18.48 45.4 25.89 38.88 34.84 38.88C43.79 38.88 51.2 45.4 52.63 53.94C52.8 54.92 52.9 55.91 52.9 56.94C52.9 57.96 52.8 58.96 52.63 59.94C51.2 68.48 43.79 75 34.84 75C30.8 75 27.07 73.66 24.07 71.41C23.37 72.02 22.47 72.39 21.47 72.39C20.64 72.39 19.97 73.07 19.97 73.89C19.97 74.47 19.84 75.02 19.62 75.51C23.77 78.93 29.06 81 34.85 81C47.1 81 57.22 71.79 58.7 59.94L62.33 59.94C63.81 71.8 73.93 81 86.18 81C98.43 81 108.56 71.79 110.04 59.94L118 59.94C118.02 59.94 118.05 59.93 118.07 59.93C119.86 59.94 121.46 58.5 120.92 56.28Z" />
		<path id="Path 3" class="shp0" d="M101.37 32.5C96.4 32.5 92.37 28.47 92.37 23.5C92.37 28.47 88.35 32.5 83.38 32.5C88.35 32.5 92.37 36.53 92.37 41.5C92.37 36.53 96.4 32.5 101.37 32.5ZM75.81 39.5C72.77 39.5 70.31 37.04 70.31 34.01C70.31 37.04 67.85 39.5 64.81 39.5C67.85 39.5 70.31 41.96 70.31 45C70.31 41.96 72.77 39.5 75.81 39.5ZM21.47 68.4C18.43 68.4 15.97 65.94 15.97 62.9C15.97 65.94 13.51 68.4 10.47 68.4C13.51 68.4 15.97 70.85 15.97 73.89C15.97 70.86 18.43 68.4 21.47 68.4Z" />
	</g>
</svg>