<svg xmlns="http://www.w3.org/2000/svg" width="293" height="81"><defs><clipPath id="cp1"><path d="M0 0h293v81H0z"/></clipPath></defs><style>.shp0{fill:#283645}</style><g id="Page 1" clip-path="url(#cp1)"><path id="Path 1" fill-rule="evenodd" class="shp0" d="M143.75 37.58c0-1.42 1.16-2.58 2.51-2.58h14.36c10.17 0 16.87 5.41 16.87 14.29v.13c0 9.72-8.11 14.74-17.71 14.74h-10.94v13.65c0 1.42-1.16 2.58-2.58 2.58-1.36 0-2.52-1.16-2.52-2.58l.01-40.23zm16.23 21.95c7.46 0 12.36-3.99 12.36-9.91v-.13c0-6.44-4.83-9.79-12.11-9.79h-11.39v19.84h11.14v-.01zm27.23-22.28c0-1.41 1.15-2.57 2.51-2.57 1.41 0 2.57 1.16 2.57 2.57v40.57c0 1.41-1.16 2.57-2.57 2.57-1.36 0-2.51-1.16-2.51-2.57V37.25zm18.28.07c0-1.36 1.16-2.52 2.51-2.52h.71c1.16 0 1.87.58 2.57 1.48l27.37 34.9V37.19c0-1.35 1.1-2.51 2.51-2.51 1.36 0 2.45 1.16 2.45 2.51v40.69c0 1.36-.95 2.39-2.31 2.39h-.26c-1.09 0-1.87-.65-2.63-1.55l-27.96-35.73v34.89c0 1.36-1.09 2.52-2.51 2.52-1.35 0-2.45-1.16-2.45-2.52V37.32zm50.86-.07c0-1.41 1.16-2.57 2.51-2.57 1.42 0 2.57 1.16 2.57 2.57v24.66l25.7-26.33c.58-.52 1.16-.9 1.99-.9 1.35 0 2.45 1.22 2.45 2.51 0 .71-.32 1.29-.84 1.8l-15.97 15.84 17.13 21.12c.45.58.71 1.09.71 1.87 0 1.36-1.15 2.58-2.57 2.58-.96 0-1.61-.52-2.06-1.16l-16.8-20.93-9.73 9.72v9.79c0 1.42-1.15 2.58-2.57 2.58-1.35 0-2.51-1.16-2.51-2.58V37.25h-.01z"/><path id="Path 2" d="M197 20c-4.01 0-7.25-3.24-7.25-7.25 0 4.01-3.25 7.25-7.25 7.25 4 0 7.25 3.25 7.25 7.25 0-4 3.24-7.25 7.25-7.25zM86.19 38.88c.49 0 .98.03 1.46.06-.88-1.45-2.46-2.44-4.27-2.44-1.76 0-3.23-1.13-3.77-2.71-1.46.42-2.85.97-4.18 1.64.12.03.24.07.38.07 2.2 0 4 1.79 4 4 0 .19-.03.38-.06.56 2-.76 4.17-1.18 6.44-1.18zm34.73 17.4c0-.01-10.35-42.73-10.35-42.73-.72-4.69-5.18-13.3-17.19-13.3-1.66 0-3 1.34-3 3s1.34 3 3 3c9.71 0 11.15 7.46 11.27 8.29l9.54 39.4h-4.15c-.89-7.11-4.9-13.26-10.61-17.04-1.79.76-3.06 2.53-3.06 4.6 0 .18-.03.34-.05.51 3.98 2.72 6.83 6.98 7.66 11.93.16.98.27 1.98.27 3 0 1.03-.11 2.03-.27 3C102.55 68.49 95.14 75 86.19 75S69.83 68.49 68.4 59.94c-.17-.97-.27-1.97-.27-3 0-1.02.1-2.02.27-3 .29-1.75.85-3.42 1.61-4.96-2.07-.16-3.7-1.87-3.7-3.97 0-.38-.16-.71-.39-.98-1.87 2.94-3.13 6.3-3.59 9.92h-3.64c-1.48-11.86-11.6-21.07-23.85-21.07-12.25 0-22.37 9.21-23.85 21.06H6.84l9.53-39.4c.13-.83 1.57-8.29 11.28-8.29 1.66 0 3-1.34 3-3s-1.34-3-3-3c-12.01 0-16.47 8.61-17.2 13.3 0 0-10.34 42.72-10.35 42.73-.53 2.22 1.07 3.66 2.86 3.66h8.03c.16 1.26.43 2.48.78 3.67.11-.22.2-.45.2-.71 0-2.21 1.79-4 4-4 .33 0 .65.05.96.12-.09-.68-.15-1.37-.15-2.08 0-1.03.1-2.02.27-3 1.43-8.54 8.84-15.06 17.79-15.06S51.2 45.4 52.63 53.94c.17.98.27 1.97.27 3 0 1.02-.1 2.02-.27 3C51.2 68.48 43.79 75 34.84 75c-4.04 0-7.77-1.34-10.77-3.59-.7.61-1.6.98-2.6.98-.83 0-1.5.68-1.5 1.5 0 .58-.13 1.13-.35 1.62C23.77 78.93 29.06 81 34.85 81c12.25 0 22.37-9.21 23.85-21.06h3.63C63.81 71.8 73.93 81 86.18 81c12.25 0 22.38-9.21 23.86-21.06H118c.02 0 .05-.01.07-.01 1.79.01 3.39-1.43 2.85-3.65z" fill="#d22856"/><path id="Path 3" class="shp0" d="M101.37 32.5a9 9 0 0 1-9-9c0 4.97-4.02 9-8.99 9 4.97 0 8.99 4.03 8.99 9a9 9 0 0 1 9-9zm-25.56 7c-3.04 0-5.5-2.46-5.5-5.49 0 3.03-2.46 5.49-5.5 5.49 3.04 0 5.5 2.46 5.5 5.5 0-3.04 2.46-5.5 5.5-5.5zM21.47 68.4c-3.04 0-5.5-2.46-5.5-5.5 0 3.04-2.46 5.5-5.5 5.5 3.04 0 5.5 2.45 5.5 5.49 0-3.03 2.46-5.49 5.5-5.49z"/></g></svg>