<svg xmlns="http://www.w3.org/2000/svg" viewBox="0 0 149 46" width="149" height="46"><defs><clipPath clipPathUnits="userSpaceOnUse" id="cp1"><path d="M0 0L149 0L149 46L0 46Z" /></clipPath></defs><style>tspan { white-space:pre }.shp0 { fill: #ffffff }</style><g id="Page 1" clip-path="url(#cp1)"><path id="Path 1" fill-rule="evenodd" class="shp0" d="M0 3.18C0 1.76 1.16 0.6 2.51 0.6L16.87 0.6C27.05 0.6 33.74 6.01 33.74 14.9L33.74 15.02C33.74 24.75 25.63 29.77 16.04 29.77L5.09 29.77L5.09 43.42C5.09 44.84 3.93 46 2.51 46C1.16 46 0 44.84 0 43.42L0 3.18ZM16.23 25.14C23.7 25.14 28.59 21.14 28.59 15.22L28.59 15.09C28.59 8.65 23.76 5.3 16.48 5.3L5.09 5.3L5.09 25.14L16.23 25.14ZM43.46 2.86C43.46 1.44 44.62 0.28 45.97 0.28C47.38 0.28 48.54 1.44 48.54 2.86L48.54 43.42C48.54 44.84 47.38 46 45.97 46C44.61 46 43.46 44.84 43.46 43.42L43.46 2.86L43.46 2.86ZM61.74 2.92C61.74 1.57 62.9 0.41 64.25 0.41L64.96 0.41C66.12 0.41 66.83 0.99 67.54 1.89L94.9 36.79L94.9 2.79C94.9 1.44 96 0.28 97.41 0.28C98.77 0.28 99.86 1.44 99.86 2.79L99.86 43.49C99.86 44.84 98.9 45.87 97.54 45.87L97.28 45.87C96.19 45.87 95.42 45.23 94.65 44.33L66.7 8.59L66.7 43.49C66.7 44.84 65.6 46 64.19 46C62.83 46 61.74 44.84 61.74 43.49L61.74 2.92ZM112.6 2.86C112.6 1.44 113.76 0.28 115.11 0.28C116.53 0.28 117.69 1.44 117.69 2.86L117.69 27.52L143.38 1.18C143.96 0.67 144.54 0.28 145.38 0.28C146.73 0.28 147.82 1.5 147.82 2.79C147.82 3.5 147.5 4.08 146.99 4.59L131.02 20.43L148.15 41.56C148.6 42.14 148.85 42.65 148.85 43.42C148.85 44.78 147.7 46 146.28 46C145.31 46 144.67 45.48 144.22 44.84L127.41 23.91L117.69 33.64L117.69 43.42C117.69 44.84 116.53 46 115.12 46C113.76 46 112.6 44.84 112.6 43.42L112.6 2.86L112.6 2.86Z" /></g></svg>