<svg xmlns="http://www.w3.org/2000/svg" width="293" height="81"><defs><clipPath id="cp1"><path d="M0 0h293v81H0z"/></clipPath></defs><style></style><g id="Page 1" clip-path="url(#cp1)"><path id="Path 1" fill-rule="evenodd" d="M143.75 37.57c0-1.42 1.16-2.58 2.51-2.58h14.36c10.17 0 16.87 5.41 16.87 14.3v.12c0 9.73-8.11 14.75-17.71 14.75h-10.94v13.65c0 1.42-1.16 2.58-2.58 2.58-1.35 0-2.51-1.16-2.51-2.58V37.57zm16.23 21.96c7.46 0 12.36-3.99 12.36-9.92v-.12c0-6.44-4.83-9.79-12.11-9.79h-11.39v19.83h11.14zm27.23-22.28c0-1.42 1.15-2.58 2.51-2.58 1.41 0 2.57 1.16 2.57 2.58v40.56c0 1.42-1.16 2.58-2.57 2.58-1.36 0-2.51-1.16-2.51-2.58V37.25zm18.28.06c0-1.35 1.16-2.51 2.51-2.51h.71c1.16 0 1.87.58 2.57 1.48l27.37 34.9v-34c0-1.35 1.1-2.51 2.51-2.51 1.36 0 2.45 1.16 2.45 2.51v40.7c0 1.35-.96 2.38-2.31 2.38h-.26c-1.1 0-1.87-.64-2.64-1.54l-27.95-35.74v34.9c0 1.35-1.09 2.51-2.51 2.51-1.35 0-2.45-1.16-2.45-2.51V37.31zm50.86-.06c0-1.42 1.16-2.58 2.51-2.58 1.42 0 2.57 1.16 2.57 2.58v24.66l25.7-26.34c.58-.51 1.16-.9 1.99-.9 1.35 0 2.45 1.23 2.45 2.51 0 .71-.32 1.29-.84 1.81l-15.97 15.84 17.13 21.12c.45.58.71 1.09.71 1.87 0 1.35-1.15 2.57-2.57 2.57-.97 0-1.61-.51-2.06-1.16l-16.8-20.92-9.73 9.72v9.79c0 1.41-1.16 2.57-2.57 2.57-1.36 0-2.52-1.16-2.52-2.57V37.25zM118.07 59.93c-.02 0-.05.01-.07.01h-7.96C108.55 71.79 98.43 81 86.18 81s-22.37-9.21-23.85-21.06H58.7C57.22 71.79 47.1 81 34.85 81c-12.25 0-22.38-9.21-23.86-21.06H3.03c-.03 0-.05-.01-.07-.01-1.79 0-3.39-1.43-2.86-3.65.01-.02 10.35-42.73 10.35-42.73.73-4.7 5.19-13.3 17.2-13.3 1.66 0 3 1.34 3 3s-1.34 3-3 3c-9.71 0-11.15 7.46-11.28 8.28L6.84 53.94h4.15c1.48-11.86 11.6-21.07 23.85-21.07 12.25 0 22.37 9.21 23.85 21.07h3.64c1.49-11.86 11.61-21.07 23.86-21.07s22.37 9.21 23.85 21.07h4.15l-9.54-39.41c-.12-.82-1.56-8.28-11.27-8.28-1.66 0-3-1.34-3-3s1.34-3 3-3c12.01 0 16.47 8.6 17.19 13.3 0 0 10.35 42.71 10.35 42.73.54 2.22-1.06 3.65-2.85 3.65zM52.9 56.94c0-1.03-.11-2.03-.27-3-1.43-8.55-8.84-15.07-17.79-15.07s-16.36 6.52-17.79 15.07c-.17.97-.27 1.97-.27 3 0 1.02.1 2.02.27 3C18.48 68.48 25.89 75 34.84 75s16.36-6.52 17.79-15.06c.16-.98.27-1.98.27-3zm51.35 0c0-1.03-.11-2.03-.27-3-1.43-8.55-8.84-15.07-17.79-15.07S69.83 45.39 68.4 53.94c-.17.97-.27 1.97-.27 3 0 1.02.1 2.02.27 3C69.83 68.48 77.24 75 86.19 75s16.36-6.52 17.79-15.06c.16-.98.27-1.98.27-3z" fill="#fff"/></g></svg>