<svg xmlns="http://www.w3.org/2000/svg" width="36" height="28"><defs><clipPath id="cp1"><path d="M0 0h36v28H0z"/></clipPath></defs><style></style><g id="Page 1" clip-path="url(#cp1)"><path id="Path 1" d="M29.83 3.7c2.39-2 1.8-3.63-1.32-3.63H7.46C4.34.07 3.75 1.7 6.15 3.7l7.48 6.23c2.4 2 6.32 2 8.71 0l7.49-6.23zm-6 10.46c-2.4 1.99-4.39 3.65-4.44 3.67l-.04.03c-.15.11-.3.2-.47.27-.07.03-.13.07-.2.09-.22.07-.45.12-.67.12h-.04c-.23 0-.45-.05-.67-.12-.07-.02-.14-.06-.2-.09-.17-.07-.32-.16-.47-.27l-.04-.03c-.05-.02-2.04-1.68-4.44-3.67l-7.79-6.5C1.96 5.67 0 6.58 0 9.7v12.63C0 25.45 2.55 28 5.67 28h24.64c3.12 0 5.67-2.55 5.67-5.67V9.7c0-3.12-1.96-4.03-4.36-2.04l-7.79 6.5z" fill="#fff"/></g></svg>