<svg xmlns="http://www.w3.org/2000/svg" viewBox="0 0 54 54" width="54" height="54">
	<defs>
		<clipPath clipPathUnits="userSpaceOnUse" id="cp1">
			<path d="M0 0L54 0L54 54L0 54Z" />
		</clipPath>
	</defs>
	<style>
		tspan { white-space:pre }
		.shp0 { fill: #000000 } 
	</style>
	<g id="Page 1" clip-path="url(#cp1)">
		<path id="Path 1" class="shp0" d="M31 27.25L52.62 5.62C53.8 4.45 53.8 2.55 52.62 1.38C51.45 0.21 49.55 0.21 48.38 1.38L26.75 23.01L5.13 1.38C3.95 0.2 2.06 0.2 0.88 1.38C-0.29 2.55 -0.29 4.45 0.88 5.62L22.51 27.25L0.88 48.88C-0.29 50.05 -0.29 51.95 0.88 53.12C1.47 53.71 2.23 54 3 54C3.77 54 4.54 53.71 5.12 53.12L26.75 31.49L48.38 53.12C48.97 53.71 49.74 54 50.5 54C51.27 54 52.04 53.71 52.62 53.12C53.8 51.95 53.8 50.05 52.62 48.88L31 27.25Z" />
	</g>
</svg>