<svg xmlns="http://www.w3.org/2000/svg" width="54" height="54"><defs><clipPath id="cp1"><path d="M0 0h54v54H0z"/></clipPath></defs><style></style><g id="Page 1" clip-path="url(#cp1)"><path id="Path 1" d="M31 27.25L52.62 5.62a2.982 2.982 0 0 0 0-4.24 3 3 0 0 0-4.24 0L26.75 23.01 5.13 1.38a2.994 2.994 0 0 0-4.25 0 3 3 0 0 0 0 4.24l21.63 21.63L.88 48.88A3 3 0 0 0 3 54c.77 0 1.54-.29 2.12-.88l21.63-21.63 21.63 21.63c.59.59 1.36.88 2.12.88.77 0 1.54-.29 2.12-.88a2.982 2.982 0 0 0 0-4.24L31 27.25z"/></g></svg>