<svg xmlns="http://www.w3.org/2000/svg" viewBox="0 0 41 40" width="41" height="40"><defs><path d="M1 1h39v39H1z"/></defs><path id="Path 1" fill-rule="evenodd" d="M23.16 14.56v-2.05c0-1.13.92-2.05 2.05-2.05s2.05.92 2.05 2.05v2.05l11.07 11.82c.77.76 1.24 1.79 1.24 2.94v3.3c0 1.81-1.47 3.28-3.28 3.28h-.82v2.05c0 1.13-.92 2.05-2.06 2.05a2.05 2.05 0 0 1-2.04-2.05V35.9H10.03v2.05c0 1.13-.92 2.05-2.05 2.05s-2.05-.92-2.05-2.05V35.9H5.1c-1.81 0-3.28-1.47-3.28-3.28v-3.3c0-1.15.48-2.18 1.24-2.94l11.08-11.82v-2.05c0-1.13.91-2.05 2.04-2.05s2.05.92 2.05 2.05v2.05h4.93zm-9.02 10.67c0 3.63 2.93 6.56 6.56 6.56 3.62 0 6.56-2.93 6.56-6.56a6.56 6.56 0 1 0-13.12 0zm9.84 0c0 1.81-1.47 3.28-3.28 3.28-1.82 0-3.29-1.47-3.29-3.28 0-1.82 1.47-3.28 3.29-3.28 1.81 0 3.28 1.47 3.28 3.28zM37.3 4.37c2.11 2.08 2.82 5.75 3.06 8.07 0 0 .04.23.04.33 0 .91-.75 1.64-1.65 1.64-.1 0-4.05-.33-6.43-.52-.06-.01-.12-.02-.17-.03a1.65 1.65 0 0 1-1.61-1.65V8.98c0-1-.82-1.8-1.82-1.8H12.67c-1 0-1.82.8-1.82 1.8v3.23c0 .9-.72 1.62-1.6 1.64-.06.02-.12.03-.18.04-2.37.19-6.32.51-6.43.51-.9 0-1.64-.73-1.64-1.63 0-.11.03-.33.03-.33.24-2.33.95-5.99 3.06-8.07C6.65 1.87 13.68.61 20.7.61c7.01 0 14.05 1.26 16.6 3.76z"/></svg>