<svg xmlns="http://www.w3.org/2000/svg" width="159" height="128"><defs><clipPath id="cp1"><path d="M1 0h157v128H1z"/></clipPath></defs><style></style><g id="Page 1" clip-path="url(#cp1)"><path id="Path 1" d="M70.93 14.55L62.43.42C57.54 3.41 1 24.84 1 79.66 1 94.12 1.67 128 38.8 128c22.37 0 27.88-20.56 27.88-27.17 0-43.95-42.76-28.35-42.76-28.35 0-36.14 39.61-53.69 47.01-57.93zm87.41 0L149.84.42c-4.88 2.99-61.43 24.42-61.43 79.24 0 14.46.67 48.34 37.8 48.34 22.37 0 27.88-20.56 27.88-27.17 0-43.95-42.76-28.35-42.76-28.35 0-36.14 39.61-53.69 47.01-57.93z"/></g></svg>