<svg xmlns="http://www.w3.org/2000/svg" width="596" height="691"><defs><clipPath id="cp1"><path d="M0 1h596v690H0z"/></clipPath></defs><style></style><g id="Page 1" clip-path="url(#cp1)"><path id="Path 1" fill-rule="evenodd" d="M596 393c0 164.58-133.42 298-298 298S0 557.58 0 393C0 241.29 113.36 116.06 260 97.4V78.23h-15.32c-21.82 0-39.68-17.42-39.68-38.71S222.86.81 244.68.81h106.64C373.15.81 391 18.23 391 39.52s-17.86 38.71-39.68 38.71H336V97.4c56.22 7.16 107.54 29.99 149.46 63.96l10.77-10.77c15.43-15.43 37.87-18.25 49.87-6.25 11.99 11.99 9.18 34.43-6.25 49.87l-10.71 10.71C570.93 256.21 596 321.67 596 393zm-77.67 0c0-121.69-98.64-220.33-220.33-220.33-121.69 0-220.33 98.64-220.33 220.33 0 121.69 98.64 220.33 220.33 220.33 121.69 0 220.33-98.64 220.33-220.33z"/></g></svg>