<svg xmlns="http://www.w3.org/2000/svg" width="36" height="30"><defs><clipPath id="cp1"><path d="M0 1h35v29H0z"/></clipPath></defs><style></style><g id="Page 1" clip-path="url(#cp1)"><path id="Path 1" d="M22.57.98c3.47-.97 6.14.53 7.37 2.3 1.38-.45 2.74-.94 4.14-1.38-.01 1.68-1.08 2.96-1.77 3.45 1.41.34 2.69-.96 2.69-.96-.35 1.96-2.07 3.5-3.22 3.96-.48 13.18-6.55 21.91-20.77 21.64h-.92c-.84 0-8.58-.89-10.09-3.68 4.68.38 8.02-.83 9.67-2.3-1.98-.59-5.52-.93-6.14-5.76.72.21 1.17.44 2.46.23C3.51 16.81.77 15.41.92 11.11c.59.64 2.2 1.05 2.76.92-1.45-.47-4.06-6.56-1.84-9.67 3.75 3.62 7.7 7.04 14.74 7.37.43-4.48 2.34-7.48 5.99-8.75z"/></g></svg>